<?xml version="1.0" encoding="utf-8"?>
<!-- Generator: Adobe Illustrator 25.4.1, SVG Export Plug-In . SVG Version: 6.00 Build 0)  -->
<svg version="1.1" id="wave" xmlns="http://www.w3.org/2000/svg" xmlns:xlink="http://www.w3.org/1999/xlink" x="0px" y="0px"
	 viewBox="0 0 1440 490" style="enable-background:new 0 0 1440 490;" xml:space="preserve">
<style type="text/css">
	.st0{fill:url(#SVGID_1_);}
	.st1{opacity:0.9;fill:url(#SVGID_00000093880487114505788890000005973904292514903691_);enable-background:new    ;}
</style>
<linearGradient id="SVGID_1_" gradientUnits="userSpaceOnUse" x1="828.3323" y1="1.622" x2="828.3323" y2="1.2595" gradientTransform="matrix(11520 0 0 454.3219 -9537732 -264.3469)">
	<stop  offset="0" style="stop-color:#F7F7F7"/>
	<stop  offset="1" style="stop-color:#F7F7F7"/>
</linearGradient>
<path class="st0" d="M0,454.8l64.7-5.9c64.7-6.1,194-17.7,323.4-35.5c129.3-17.7,258.7-41.6,388-44.4c129.3-3,258.7,14.8,388,23.7
	s258.7,8.9,388,0s258.7-26.6,388-26.6s258.7,17.8,388,23.7c129.3,6.1,258.7-0.1,388-17.8c129.3-17.9,258.7-47.2,388-41.4
	c129.3,5.8,258.7,47.5,388,71c129.3,23.5,258.7,29.7,388,32.6c129.3,3,258.7,3,388-14.8s258.7-53.3,388-68.1
	c129.3-14.9,258.7-8.8,388-11.9s258.7-14.7,388-23.7c129.3-8.8,258.7-14.9,388,8.9c129.3,23.7,258.7,77,388,91.7
	c129.3,14.9,258.7-9,388-8.9c129.3-0.1,258.7,23.8,388,20.7c129.3-3.1,258.7-32.4,388-35.5s258.7,20.8,388,14.8
	c129.3-5.9,258.7-41.4,388-56.2c129.3-14.9,258.7-8.8,388,2.9c129.3,11.9,258.7,29.6,388,32.6c129.3,2.8,258.7-8.8,323.4-14.8
	l64.7-5.9v106.6h-64.7c-64.7,0-194,0-323.4,0c-129.3,0-258.7,0-388,0c-129.3,0-258.7,0-388,0s-258.7,0-388,0s-258.7,0-388,0
	s-258.7,0-388,0s-258.7,0-388,0s-258.7,0-388,0c-129.3,0-258.7,0-388,0s-258.7,0-388,0c-129.3,0-258.7,0-388,0s-258.7,0-388,0
	c-129.3,0-258.7,0-388,0s-258.7,0-388,0c-129.3,0-258.7,0-388,0c-129.3,0-258.7,0-388,0c-129.3,0-258.7,0-388,0
	c-129.3,0-258.7,0-388,0c-129.3,0-258.7,0-388,0s-258.7,0-388,0s-258.7,0-388,0s-258.7,0-388,0s-258.7,0-388,0s-258.7,0-323.4,0H0
	V454.8z"/>
<linearGradient id="SVGID_00000142896205985188220390000001995809590265725848_" gradientUnits="userSpaceOnUse" x1="828.3323" y1="1.6659" x2="828.3323" y2="1.257" gradientTransform="matrix(11520 0 0 490 -9537732 -300)">
	<stop  offset="0" style="stop-color:#EDEDFF"/>
	<stop  offset="1" style="stop-color:#EDEDFF"/>
</linearGradient>
<path style="opacity:0.9;fill:url(#SVGID_00000142896205985188220390000001995809590265725848_);enable-background:new    ;" d="
	M0,416.1l64.7-6.7c64.7-6.8,194-19.9,323.4-16.7c129.3,3.4,258.7,23.4,388,40.1c129.3,16.8,258.7,29.9,388,10
	c129.3-20.2,258.7-73.3,388-100.2c129.3-26.7,258.7-26.7,388-26.7s258.7,0,388,6.7c129.3,6.8,258.7,19.9,388,20
	c129.3-0.1,258.7-13.2,388,10c129.3,23.4,258.7,83.5,388,110.2c129.3,26.9,258.7,19.9,388-3.3c129.3-23.4,258.7-63.5,388-76.8
	c129.3-13.2,258.7-0.1,388,16.7c129.3,16.7,258.7,36.7,388,33.4c129.3-3.2,258.7-30.2,388-43.4c129.3-13.4,258.7-13.4,388,0
	c129.3,13.2,258.7,40.2,388,53.4c129.3,13.4,258.7,13.4,388-3.3c129.3-16.8,258.7-50,388-50.1c129.3,0.1,258.7,33.2,388,36.7
	s258.7-23.5,388-40.1s258.7-23.5,388-30.1c129.3-6.5,258.7-13.5,388,10c129.3,23.5,258.7,76.7,388,76.8
	c129.3-0.1,258.7-53.3,323.4-80.1l64.7-26.7v180.4h-64.7c-64.7,0-194,0-323.4,0c-129.3,0-258.7,0-388,0c-129.3,0-258.7,0-388,0
	s-258.7,0-388,0s-258.7,0-388,0s-258.7,0-388,0s-258.7,0-388,0s-258.7,0-388,0c-129.3,0-258.7,0-388,0s-258.7,0-388,0
	c-129.3,0-258.7,0-388,0s-258.7,0-388,0c-129.3,0-258.7,0-388,0s-258.7,0-388,0c-129.3,0-258.7,0-388,0c-129.3,0-258.7,0-388,0
	c-129.3,0-258.7,0-388,0c-129.3,0-258.7,0-388,0c-129.3,0-258.7,0-388,0s-258.7,0-388,0s-258.7,0-388,0s-258.7,0-388,0
	s-258.7,0-388,0s-258.7,0-323.4,0H0V416.1z"/>
</svg>
